<?xml version="1.0" encoding="UTF-8" standalone="no"?>
<svg width="194px" height="14px" viewBox="0 0 194 14" version="1.1" xmlns="http://www.w3.org/2000/svg" xmlns:xlink="http://www.w3.org/1999/xlink" xmlns:sketch="http://www.bohemiancoding.com/sketch/ns">
    <!-- Generator: Sketch 3.2 (9961) - http://www.bohemiancoding.com/sketch -->
    <title>button-sprite-blue</title>
    <desc>Created with Sketch.</desc>
    <defs></defs>
    <g id="Style-tile" stroke="none" stroke-width="1" fill="none" fill-rule="evenodd" sketch:type="MSPage">
        <g id="Styleguide---typography,-buttons,-colors" sketch:type="MSArtboardGroup" transform="translate(-1126.000000, -3376.000000)">
            <g id="Button-sprite-blue" sketch:type="MSLayerGroup" transform="translate(1126.000000, 3376.000000)">
                <g id="--icon-blue-2" transform="translate(102.000000, 6.000000)" fill="#1A82CB" sketch:type="MSShapeGroup">
                    <rect id="Rectangle-71" x="0" y="0" width="10" height="2"></rect>
                </g>
                <g id="checkmark-icon-blue-2" transform="translate(83.000000, 0.000000)" fill="#1A82CB" sketch:type="MSShapeGroup">
                    <rect id="Rectangle-69" transform="translate(3.323943, 8.500000) rotate(-50.000000) translate(-3.323943, -8.500000) " x="2.32394316" y="5" width="2" height="7"></rect>
                    <rect id="Rectangle-70" transform="translate(8.622770, 6.239054) scale(-1, 1) rotate(-40.000000) translate(-8.622770, -6.239054) " x="7.6227701" y="0.239054268" width="2" height="12"></rect>
                </g>
                <g id="arrow-left-icon-blue-2" transform="translate(68.000000, 3.000000)" stroke="#1A82CB" stroke-width="2" sketch:type="MSShapeGroup">
                    <path d="M0,0 L4.13525391,3.85131836 L0,8" id="Line-6" transform="translate(2.067627, 4.000000) scale(-1, 1) translate(-2.067627, -4.000000) "></path>
                    <path d="M0.5,4 L7.5,4" id="Line-10" stroke-linecap="square"></path>
                </g>
                <g id="stop-icon-blue-2" transform="translate(49.000000, 1.000000)" sketch:type="MSShapeGroup">
                    <ellipse id="Oval-333" stroke="#1A82CB" stroke-width="2" cx="6" cy="6" rx="6" ry="6"></ellipse>
                    <rect id="Rectangle-68" fill="#1A82CB" transform="translate(6.000000, 6.000000) scale(-1, 1) rotate(-45.000000) translate(-6.000000, -6.000000) " x="1" y="5" width="10" height="2"></rect>
                </g>
                <g id="x-icon-blue-2" transform="translate(34.000000, 2.000000)" fill="#1A82CB" sketch:type="MSShapeGroup">
                    <rect id="Rectangle-71" transform="translate(5.242641, 5.242641) rotate(-315.000000) translate(-5.242641, -5.242641) " x="0.242640687" y="4.24264069" width="10" height="2"></rect>
                    <rect id="Rectangle-72" transform="translate(5.242641, 5.242641) rotate(-45.000000) translate(-5.242641, -5.242641) " x="0.242640687" y="4.24264069" width="10" height="2"></rect>
                </g>
                <g id="circle-icon-blue-2" transform="translate(17.000000, 1.000000)" stroke="#1A82CB" stroke-width="2" sketch:type="MSShapeGroup">
                    <ellipse id="Oval-332" cx="6" cy="6" rx="6" ry="6"></ellipse>
                </g>
                <g id="Filter-icon-blue-2" transform="translate(0.000000, 2.000000)" fill="#1A82CB" sketch:type="MSShapeGroup">
                    <polygon id="Triangle-226" transform="translate(6.000000, 3.500000) scale(1, -1) translate(-6.000000, -3.500000) " points="6 0 12 7 0 7 "></polygon>
                    <rect id="Rectangle-67" x="5" y="3" width="2" height="8"></rect>
                </g>
                <g id="+-icon-blue-2" transform="translate(136.000000, 2.000000)" fill="#1A82CB" sketch:type="MSShapeGroup">
                    <rect id="Rectangle-71" x="0" y="4" width="10" height="2"></rect>
                    <rect id="Rectangle-72" transform="translate(5.000000, 5.000000) rotate(-90.000000) translate(-5.000000, -5.000000) " x="0" y="4" width="10" height="2"></rect>
                </g>
                <g id="arrow-right-icon-blue-2" transform="translate(124.000000, 7.000000) scale(-1, 1) translate(-124.000000, -7.000000) translate(120.000000, 3.000000)" stroke="#1A82CB" stroke-width="2" sketch:type="MSShapeGroup">
                    <path d="M0,0 L4.13525391,3.85131836 L0,8" id="Line-6" transform="translate(2.067627, 4.000000) scale(-1, 1) translate(-2.067627, -4.000000) "></path>
                    <path d="M0.5,4 L7.5,4" id="Line-10" stroke-linecap="square"></path>
                </g>
                <g id="&lt;---icon-blue-2" transform="translate(188.000000, 3.000000)" stroke="#1A82CB" stroke-width="2" sketch:type="MSShapeGroup">
                    <path d="M0,0 L4.13525391,3.85131836 L0,8" id="Line-10" transform="translate(2.067627, 4.000000) scale(-1, 1) translate(-2.067627, -4.000000) "></path>
                </g>
                <g id="arrow-up-icon-blue-2" transform="translate(174.000000, 7.000000) scale(-1, 1) rotate(-270.000000) translate(-174.000000, -7.000000) translate(169.000000, 3.000000)" sketch:type="MSShapeGroup">
                    <path d="M5.13525391,8.8817842e-16 L1,3.85131836 L5.13525391,8" id="Line-6" stroke="#1A82CB" stroke-width="2"></path>
                    <rect id="Rectangle-74" fill="#1A82CB" x="2" y="3" width="8" height="2"></rect>
                </g>
            </g>
        </g>
    </g>
</svg>