<svg xmlns="http://www.w3.org/2000/svg" xmlns:xlink="http://www.w3.org/1999/xlink" version="1.1" id="Layer_1" x="0px" y="0px" viewBox="0 0 154.67 153.96" enable-background="new 0 0 154.67 153.96" xml:space="preserve"><g><path fill="#12353C" d="M0.89 21.54L0.89 21.54C-2.6 41.8 4.3 70.5 20.4 98.53c16.16 28 37.6 48.3 56.9 55.44V0 C45.01 0 16.7 8.4 0.9 21.54z"/></g><path fill="#EDDD3E" d="M134.22 98.53c16.16-27.99 23.05-56.72 19.56-76.98l-0.01 0.01l0.01-0.01h0c0 0 0 0 0 0 C137.99 8.4 109.7 0 77.3 0h0v153.96h0C96.62 146.8 118.1 126.5 134.2 98.53z"/><g><path fill="#FFFFFF" d="M115.57 25.24c-4.52-1.29-9.33-2.33-14.33-3.13c-0.06 2.12-0.17 4.37-0.33 6.7 c-0.34 5.02-0.91 10.32-1.65 15.52c3.28 1 6.2 2.3 8.5 3.7c0.04 3.18-0.44 6.84-1.42 10.78c-1.54 6.15-4.27 12.72-7.9 19 c-3.63 6.29-7.96 11.94-12.51 16.35c-2.92 2.82-5.85 5.07-8.62 6.62c-2.78-1.56-5.71-3.8-8.62-6.62 c-4.55-4.41-8.88-10.06-12.51-16.35c-3.63-6.29-6.36-12.86-7.9-19.01c-0.99-3.94-1.47-7.6-1.42-10.78c2.38-1.41 5.26-2.67 8.54-3.7 c-0.73-5.2-1.31-10.5-1.65-15.52c-0.16-2.37-0.27-4.62-0.33-6.74c-5 0.8-9.81 1.84-14.33 3.13c-7.31 2.09-13.69 4.74-18.82 7.8 c-0.08 6 0.8 12.8 2.7 20.19c2.88 11.5 8 23.8 14.8 35.6c6.8 11.8 14.9 22.4 23.4 30.6 c5.46 5.3 10.9 9.5 16.1 12.41c5.2-2.92 10.68-7.12 16.15-12.41c8.53-8.25 16.63-18.84 23.43-30.62 c6.8-11.78 11.92-24.09 14.8-35.6c1.85-7.38 2.74-14.23 2.67-20.19C129.26 30 122.9 27.3 115.6 25.24z"/></g><g><path fill="#EAEAEA" d="M77.33 100.83c-2.78-1.56-5.7-3.8-8.62-6.62c-4.55-4.41-8.88-10.06-12.51-16.35 c-3.63-6.29-6.36-12.86-7.9-19.01c-0.99-3.94-1.47-7.6-1.42-10.78c2.38-1.41 5.26-2.67 8.54-3.7c-0.73-5.2-1.31-10.5-1.65-15.52 c-0.16-2.37-0.27-4.62-0.33-6.74c-5 0.8-9.81 1.84-14.33 3.13c-7.31 2.09-13.69 4.74-18.82 7.78c-0.08 6 0.8 12.8 2.7 20.2 c2.88 11.5 8 23.8 14.8 35.6c6.8 11.8 14.9 22.4 23.4 30.62c5.46 5.3 10.9 9.5 16.1 12.4V100.83z"/></g></svg>