<?xml version="1.0" encoding="utf-8"?>
<!-- Generator: Adobe Illustrator 16.0.4, SVG Export Plug-In . SVG Version: 6.00 Build 0)  -->
<!DOCTYPE svg PUBLIC "-//W3C//DTD SVG 1.1//EN" "http://www.w3.org/Graphics/SVG/1.1/DTD/svg11.dtd">
<svg version="1.1" id="Layer_1" xmlns="http://www.w3.org/2000/svg" xmlns:xlink="http://www.w3.org/1999/xlink" x="0px" y="0px"
	 width="425.197px" height="184.252px" viewBox="0 0 425.197 184.252" enable-background="new 0 0 425.197 184.252"
	 xml:space="preserve">
<path fill="#010202" d="M398.869,68.586l-26.775-44.58l-0.024-0.035l-0.005-0.01l-3.601-5.99h-29.14l11.025,18.359l0.005,0.011
	l0.67,1.12l0.01,0.015l33.26,55.386l-45.095,75.109h29.135l2.82-4.7l0.01-0.015l1.71-2.846v-0.004l25.995-43.275l9.96-16.585
	c0.56-0.726,1.04-1.521,1.42-2.365l3.2-5.325L398.869,68.586z"/>
<path fill="#010202" d="M28.029,68.586l26.775-44.58l0.024-0.035l0.005-0.01l3.601-5.99h29.14L76.548,36.331l-0.005,0.011
	l-0.67,1.12l-0.01,0.015l-33.26,55.386l45.095,75.109H58.564l-2.82-4.7l-0.01-0.015l-1.71-2.846v-0.004l-25.995-43.275l-9.96-16.585
	c-0.56-0.726-1.04-1.521-1.42-2.365l-3.2-5.325L28.029,68.586z"/>
<rect x="113.449" y="142.971" fill="#010202" width="25" height="25"/>
<rect x="163.449" y="142.971" fill="#010202" width="25" height="25"/>
<rect x="213.449" y="142.971" fill="#010202" width="25" height="25"/>
<polygon fill="#010202" points="263.449,167.971 288.449,167.971 313.449,17.971 288.449,17.971 "/>
</svg>
