<svg xmlns="http://www.w3.org/2000/svg" xmlns:xlink="http://www.w3.org/1999/xlink" width="48" height="324" viewBox="0 0 48 324"><svg width="24" height="24" viewBox="0 0 24 24" id="ic-access-alarm-24px" y="0"><path d="M22 5.72l-4.6-3.86-1.29 1.53 4.6 3.86L22 5.72zM7.88 3.39L6.6 1.86 2 5.71l1.29 1.53 4.59-3.85zM12.5 8H11v6l4.75 2.85.75-1.23-4-2.37V8zM12 4c-4.97 0-9 4.03-9 9s4.02 9 9 9c4.97 0 9-4.03 9-9s-4.03-9-9-9zm0 16c-3.87 0-7-3.13-7-7s3.13-7 7-7 7 3.13 7 7-3.13 7-7 7z"/></svg><svg width="48" height="48" viewBox="0 0 48 48" id="ic-access-time-48px" y="24"><path fill-opacity=".9" d="M23.99 4C12.94 4 4 12.95 4 24s8.94 20 19.99 20C35.04 44 44 35.05 44 24S35.04 4 23.99 4zM24 40c-8.84 0-16-7.16-16-16S15.16 8 24 8s16 7.16 16 16-7.16 16-16 16zm1-26h-3v12l10.49 6.3L34 29.84l-9-5.34z"/></svg><svg width="24" height="24" viewBox="0 0 24 24" id="ic-airplanemode-off-24px" y="72"><path d="M13 9V3.5c0-.83-.67-1.5-1.5-1.5S10 2.67 10 3.5v3.68l7.83 7.83L21 16v-2l-8-5zM3 5.27l4.99 4.99L2 14v2l8-2.5V19l-2 1.5V22l3.5-1 3.5 1v-1.5L13 19v-3.73L18.73 21 20 19.73 4.27 4 3 5.27z"/></svg><svg width="18" height="18" viewBox="0 0 18 18" id="ic-battery-30-18px" y="96"><path fill-opacity=".3" d="M13 4c0-.55-.45-1-1-1h-1.5V1.5h-3V3H6c-.55 0-1 .45-1 1v7.5h8V4z"/><path d="M5 11.5V15c0 .55.45 1 1 1h6c.55 0 1-.45 1-1v-3.5H5z"/></svg><svg width="48" height="48" viewBox="0 0 48 48" id="ic-battery-charging-20-48px" y="114"><path d="M22 40v-6h-8v7.33C14 42.8 15.19 44 16.67 44h14.67c1.47 0 2.67-1.19 2.67-2.67V34h-8.8L22 40z"/><path fill-opacity=".3" d="M31.33 8H28V4h-8v4h-3.33C15.19 8 14 9.19 14 10.67V34h8v-5h-4l8-15v11h4l-4.8 9H34V10.67C34 9.19 32.81 8 31.33 8z"/></svg><svg width="48" height="48" viewBox="0 0 48 48" id="ic-brightness-high-48px" y="162"><path d="M40 17.37V8h-9.37L24 1.37 17.37 8H8v9.37L1.37 24 8 30.63V40h9.37L24 46.63 30.63 40H40v-9.37L46.63 24 40 17.37zM24 36c-6.63 0-12-5.37-12-12s5.37-12 12-12 12 5.37 12 12-5.37 12-12 12zm0-20c-4.42 0-8 3.58-8 8s3.58 8 8 8 8-3.58 8-8-3.58-8-8-8z"/></svg><svg width="24" height="24" viewBox="0 0 24 24" id="ic-data-usage-24px" y="210"><path d="M13 2.05v3.03c3.39.49 6 3.39 6 6.92 0 .9-.18 1.75-.48 2.54l2.6 1.53c.56-1.24.88-2.62.88-4.07 0-5.18-3.95-9.45-9-9.95zM12 19c-3.87 0-7-3.13-7-7 0-3.53 2.61-6.43 6-6.92V2.05c-5.06.5-9 4.76-9 9.95 0 5.52 4.47 10 9.99 10 3.31 0 6.24-1.61 8.06-4.09l-2.6-1.53C16.17 17.98 14.21 19 12 19z"/></svg><svg width="24" height="24" viewBox="0 0 24 24" id="ic-now-widgets-24px" y="234"><path d="M13 13v8h8v-8h-8zM3 21h8v-8H3v8zM3 3v8h8V3H3zm13.66-1.31L11 7.34 16.66 13l5.66-5.66-5.66-5.65z"/></svg><svg width="18" height="18" viewBox="0 0 18 18" id="ic-signal-wifi-0-bar-18px" y="258"><path fill-opacity=".3" d="M9.01 15.99l8.8-10.96C17.47 4.77 14.08 2 9 2S.53 4.77.19 5.03l8.8 10.96h.02z"/></svg><svg width="26" height="24" viewBox="0 0 26 24" id="ic-signal-wifi-statusbar-connected-no-internet-1-26x24px" y="276"><path fill-opacity=".3" d="M24.24 8l1.35-1.68C25.1 5.96 20.26 2 13 2S.9 5.96.42 6.32l12.57 15.66.01.02.01-.01L20 13.28V8h4.24z"/><path d="M7.34 14.95L13 21.99V22v-.01l5.66-7.05C18.44 14.78 16.27 13 13 13s-5.44 1.78-5.66 1.95zM22 22h2v-2h-2v2zm0-12v8h2v-8h-2z"/></svg><svg width="24" height="24" viewBox="0 0 24 24" id="ic-wifi-lock-24px" y="300"><path d="M20.5 9.5c.28 0 .55.04.81.08L24 6c-3.34-2.51-7.5-4-12-4S3.34 3.49 0 6l12 16 3.5-4.67V14.5c0-2.76 2.24-5 5-5zM23 16v-1.5c0-1.38-1.12-2.5-2.5-2.5S18 13.12 18 14.5V16c-.55 0-1 .45-1 1v4c0 .55.45 1 1 1h5c.55 0 1-.45 1-1v-4c0-.55-.45-1-1-1zm-1 0h-3v-1.5c0-.83.67-1.5 1.5-1.5s1.5.67 1.5 1.5V16z"/></svg></svg>