<svg xmlns="http://www.w3.org/2000/svg" xmlns:xlink="http://www.w3.org/1999/xlink" width="595.28" height="1470" viewBox="0 0 595.28 1470"><svg width="14" height="14" viewBox="0 0 14 14" id="arrow-down-blue" y="0"><title>Arrow down - icon blue</title><desc>Created with Sketch.</desc><g transform="matrix(0 -1 1 0 3 11)" fill="none"><path d="M4.1 0L0 3.85 4.1 8" stroke="#1A82CB" stroke-width="2"/><path fill="#1A82CB" d="M4 8V0h2v8z"/></g></svg><svg width="14" height="14" viewBox="0 0 14 14" id="arrow-down-white" y="14"><title>Arrow-down-icon</title><desc>Created with Sketch.</desc><g transform="matrix(0 -1 1 0 3 11)" fill="none"><path d="M4.1 0L0 3.85 4.1 8" stroke="#fff" stroke-width="2"/><path fill="#fff" d="M4 8V0h2v8z"/></g></svg><svg width="14" height="14" viewBox="0 0 14 14" id="arrow-left-blue" y="28"><title>Arrow left - icon blue</title><desc>Created with Sketch.</desc><g transform="translate(3 3)" stroke="#1A82CB" stroke-width="2" fill="none"><path d="M4.136 0L0 3.85 4.137 8"/><path d="M.5 4h7"/></g></svg><svg width="14" height="14" viewBox="0 0 14 14" id="arrow-left-white" y="42"><title>Arrow-left-icon</title><desc>Created with Sketch.</desc><g transform="translate(3 3)" stroke-width="2" stroke="#fff" fill="none"><path d="M4.136 0L0 3.85 4.137 8"/><path d="M.5 4h7"/></g></svg><svg width="14" height="14" viewBox="0 0 14 14" id="arrow-right-blue" y="56"><title>Arrow right - icon blue</title><desc>Created with Sketch.</desc><g transform="matrix(-1 0 0 1 11 3)" stroke="#1A82CB" stroke-width="2" fill="none"><path d="M4.136 0L0 3.85 4.137 8"/><path d="M.5 4h7"/></g></svg><svg width="14" height="14" viewBox="0 0 14 14" id="arrow-right-white" y="70"><title>Arrow-right-icon</title><desc>Created with Sketch.</desc><g transform="matrix(-1 0 0 1 11 3)" stroke-width="2" stroke="#fff" fill="none"><path d="M4.136 0L0 3.85 4.137 8"/><path d="M.5 4h7"/></g></svg><svg width="14" height="14" viewBox="0 0 14 14" id="arrow-up-blue" y="84"><title>Arrow up - icon blue</title><desc>Created with Sketch.</desc><g transform="matrix(0 1 1 0 3 2)" fill="none"><path d="M5.135 0L1 3.85 5.135 8" stroke="#1A82CB" stroke-width="2"/><path fill="#1A82CB" d="M2 3h8v2H2z"/></g></svg><svg width="14" height="14" viewBox="0 0 14 14" id="arrow-up-white" y="98"><title>Arrow-up-icon</title><desc>Created with Sketch.</desc><g transform="matrix(0 1 1 0 3 2)" fill="none"><path d="M5.135 0L1 3.85 5.135 8" stroke="#fff" stroke-width="2"/><path fill="#fff" d="M2 3h8v2H2z"/></g></svg><svg width="194" height="14" viewBox="0 0 194 14" id="button-sprite-blue" y="112"><title>button-sprite-blue</title><desc>Created with Sketch.</desc><g transform="translate(-1126 -3376) translate(1126 3376)" fill="none"><path id="aiRectangle-71" d="M102 6h10v2h-10z" fill="#1A82CB"/><g transform="translate(83)" fill="#1A82CB"><path d="M0 7.016l1.286-1.532 5.362 4.5-1.286 1.533z"/><path d="M13.247 2.285L11.715 1 4 10.19l1.53 1.287z"/></g><g transform="translate(68 3)" stroke="#1A82CB" stroke-width="2"><path d="M4.136 0L0 3.85 4.137 8" id="aiLine-6"/><path d="M.5 4h7" id="aiLine-10"/></g><g transform="translate(49 1)"><ellipse stroke="#1A82CB" stroke-width="2" cx="6" cy="6" rx="6" ry="6"/><path fill="#1A82CB" d="M10.242 8.828l-7.07-7.07-1.414 1.414 7.07 7.07z"/></g><g transform="translate(34 2)" fill="#1A82CB"><path id="aiRectangle-71" d="M2.415 1.002l7.07 7.07L8.07 9.486 1 2.416z"/><path id="aiRectangle-72" d="M1.002 8.07L8.072 1l1.414 1.415-7.07 7.07z"/></g><ellipse cx="6" cy="6" rx="6" ry="6" transform="translate(17 1)" stroke="#1A82CB" stroke-width="2"/><g transform="translate(0 2)" fill="#1A82CB"><path d="M6 7l6-7H0z"/><path d="M5 3h2v8H5z"/></g><g transform="translate(136 2)" fill="#1A82CB"><path d="M0 4h10v2H0z"/><path d="M4 10V0h2v10z"/></g><g transform="matrix(-1 0 0 1 128 3)" stroke="#1A82CB" stroke-width="2"><path d="M4.136 0L0 3.85 4.137 8" id="aiLine-6"/><path d="M.5 4h7" id="aiLine-10"/></g><path d="M192.136 3L188 6.85l4.136 4.15" stroke="#1A82CB" stroke-width="2"/><g transform="matrix(0 1 1 0 170 2)"><path d="M5.135 0L1 3.85 5.135 8" stroke="#1A82CB" stroke-width="2"/><path fill="#1A82CB" d="M2 3h8v2H2z"/></g></g></svg><svg viewBox="0 0 14 14" enable-background="new 0 0 14 14" width="14" height="14" id="checkbox-check" y="126"><path fill="#1A82CB" d="M6.1 11L3.2 7.9c-.4-.4-.3-1 .1-1.3.4-.3 1.1-.3 1.4.1l1.2 1.2 3.2-4.5c.3-.4.9-.5 1.4-.3.5.3.6.9.3 1.3L6.1 11z"/></svg><svg viewBox="0 0 14 14" enable-background="new 0 0 14 14" width="14" height="14" id="checkbox-checked" y="140"><path fill="#fff" d="M.5.5h13v13H.5z"/><path fill="#ccc" d="M13 1v12H1V1h12m1-1H0v14h14V0z"/><path fill="#1A82CB" d="M6.1 11L3.2 7.9c-.4-.4-.3-1 .1-1.3.4-.3 1.1-.3 1.4.1l1.2 1.2 3.2-4.5c.3-.4.9-.5 1.4-.3.5.3.6.9.3 1.3L6.1 11z"/></svg><svg viewBox="0 0 14 14" enable-background="new 0 0 14 14" width="14" height="14" id="checkbox-default" y="154"><path fill="#fff" d="M.5.5h13v13H.5z"/><path fill="#ccc" d="M13 1v12H1V1h12m1-1H0v14h14V0z"/></svg><svg viewBox="0 0 14 14" enable-background="new 0 0 14 14" width="14" height="14" id="checkbox-disabled" y="168"><path fill="#EDEDED" d="M.5.5h13v13H.5z"/><path fill="#ccc" d="M13 1v12H1V1h12m1-1H0v14h14V0z"/></svg><svg viewBox="0 0 14 14" enable-background="new 0 0 14 14" width="14" height="14" id="checkbox-error" y="182"><path fill="#fff" d="M.5.5h13v13H.5z"/><path fill="#82003F" d="M13 1v12H1V1h12m1-1H0v14h14V0z"/></svg><svg viewBox="0 0 14 14" enable-background="new 0 0 14 14" width="14" height="14" id="checkbox-hover" y="196"><path fill="#fff" d="M.5.5h13v13H.5z"/><path fill="#1A82CB" d="M13 1v12H1V1h12m1-1H0v14h14V0z"/></svg><svg width="14" height="14" viewBox="0 0 14 14" id="checkmark-blue" y="210"><title>Checkmark - icon blue</title><desc>Created with Sketch.</desc><g transform="translate(0 1)" fill="#1A82CB"><path d="M0 7.016l1.286-1.532 5.362 4.5-1.286 1.533z"/><path d="M13.247 2.285L11.715 1 4 10.19l1.53 1.287z"/></g></svg><svg width="14" height="14" viewBox="0 0 14 14" id="checkmark-white" y="224"><title>Checkmark-icon</title><desc>Created with Sketch.</desc><g transform="translate(0 1)" fill="#fff"><path d="M0 7.016l1.286-1.532 5.362 4.5-1.286 1.533z"/><path d="M13.247 2.285L11.715 1 4 10.19l1.53 1.287z"/></g></svg><svg width="14" height="14" viewBox="0 0 14 14" id="circle-blue" y="238"><title>Circle - icon blue</title><desc>Created with Sketch.</desc><ellipse cx="6" cy="6" rx="6" ry="6" transform="translate(1 1)" stroke="#1A82CB" stroke-width="2" fill="none"/></svg><svg width="14" height="14" viewBox="0 0 14 14" id="circle-white" y="252"><title>Circle-icon</title><desc>Created with Sketch.</desc><ellipse cx="6" cy="6" rx="6" ry="6" transform="translate(1 1)" stroke-width="2" stroke="#fff" fill="none"/></svg><svg width="14" height="14" viewBox="0 0 14 14" id="filter-blue" y="266"><title>Filter - icon blue</title><desc>Created with Sketch.</desc><g transform="translate(1 2)" fill="#1A82CB"><path d="M6 7l6-7H0z"/><path d="M5 3h2v8H5z"/></g></svg><svg width="14" height="14" viewBox="0 0 14 14" id="filter-white" y="280"><title>Filter-icon</title><desc>Created with Sketch.</desc><g transform="translate(1 2)" fill="#fff"><path d="M6 7l6-7H0z"/><path d="M5 3h2v8H5z"/></g></svg><svg width="14" height="14" viewBox="0 0 14 14" id="ltsign-blue" y="294"><title>&lt; - icon blue</title><desc>Created with Sketch.</desc><path d="M9.136 3L5 6.85 9.137 11" stroke="#1A82CB" stroke-width="2" fill="none"/></svg><svg width="14" height="14" viewBox="0 0 14 14" id="ltsign-white" y="308"><title>ltsign-icon</title><desc>Created with Sketch.</desc><path d="M9.136 3L5 6.85 9.137 11" stroke-width="2" stroke="#fff" fill="none"/></svg><svg width="14" height="14" viewBox="0 0 14 14" id="min-blue" y="322"><title>Min - icon blue</title><desc>Created with Sketch.</desc><path d="M2 6h10v2H2z" fill="#1A82CB"/></svg><svg width="14" height="14" viewBox="0 0 14 14" id="min-white" y="336"><title>Min-icon</title><desc>Created with Sketch.</desc><path d="M2 6h10v2H2z" fill="#fff"/></svg><svg width="14" height="14" viewBox="0 0 14 14" id="pencil-blue" y="350"><title>pencil - icon blue</title><desc>Created with Sketch.</desc><g transform="translate(2 2)" fill="#1A82CB"><path d="M0 7.576V10h2.41L0 7.576z"/><path d="M3.68.364h3.434V8.85H3.68z"/></g></svg><svg width="14" height="14" viewBox="0 0 14 14" id="pencil-white" y="364"><title>pencil-icon</title><desc>Created with Sketch.</desc><g transform="translate(2 2)" fill="#fff"><path d="M0 7.576V10h2.41L0 7.576z"/><path d="M3.68.364h3.434V8.85H3.68z"/></g></svg><svg width="14" height="14" viewBox="0 0 14 14" id="plus-blue" y="378"><title>Plus - icon blue</title><desc>Created with Sketch.</desc><g transform="translate(2 2)" fill="#1A82CB"><path d="M0 4h10v2H0z"/><path d="M4 10V0h2v10z"/></g></svg><svg width="14" height="14" viewBox="0 0 14 14" id="plus-white" y="392"><title>Plus-icon</title><desc>Created with Sketch.</desc><g transform="translate(2 2)" fill="#fff"><path d="M0 4h10v2H0z"/><path d="M4 10V0h2v10z"/></g></svg><svg viewBox="0 0 14 14" enable-background="new 0 0 14 14" width="14" height="14" id="radiobutton-check" y="406"><circle fill="#1A82CB" cx="7" cy="7" r="5"/></svg><svg viewBox="0 0 14 14" enable-background="new 0 0 14 14" width="14" height="14" id="radiobutton-checked" y="420"><path fill="#fff" d="M7 13.5C3.4 13.5.5 10.6.5 7S3.4.5 7 .5s6.5 2.9 6.5 6.5-2.9 6.5-6.5 6.5z"/><path fill="#ccc" d="M7 1c3.3 0 6 2.7 6 6s-2.7 6-6 6-6-2.7-6-6 2.7-6 6-6m0-1C3.1 0 0 3.1 0 7s3.1 7 7 7 7-3.1 7-7-3.1-7-7-7z"/><circle fill="#1A82CB" cx="7" cy="7" r="5"/></svg><svg viewBox="0 0 14 14" enable-background="new 0 0 14 14" width="14" height="14" id="radiobutton-default" y="434"><path fill="#fff" d="M7 13.5C3.4 13.5.5 10.6.5 7S3.4.5 7 .5s6.5 2.9 6.5 6.5-2.9 6.5-6.5 6.5z"/><path fill="#ccc" d="M7 1c3.3 0 6 2.7 6 6s-2.7 6-6 6-6-2.7-6-6 2.7-6 6-6m0-1C3.1 0 0 3.1 0 7s3.1 7 7 7 7-3.1 7-7-3.1-7-7-7z"/></svg><svg viewBox="0 0 14 14" enable-background="new 0 0 14 14" width="14" height="14" id="radiobutton-disabled" y="448"><path fill="#EDEDED" d="M7 13.5C3.4 13.5.5 10.6.5 7S3.4.5 7 .5s6.5 2.9 6.5 6.5-2.9 6.5-6.5 6.5z"/><path fill="#ccc" d="M7 1c3.3 0 6 2.7 6 6s-2.7 6-6 6-6-2.7-6-6 2.7-6 6-6m0-1C3.1 0 0 3.1 0 7s3.1 7 7 7 7-3.1 7-7-3.1-7-7-7z"/></svg><svg viewBox="0 0 14 14" enable-background="new 0 0 14 14" width="14" height="14" id="radiobutton-error" y="462"><path fill="#fff" d="M7 13.5C3.4 13.5.5 10.6.5 7S3.4.5 7 .5s6.5 2.9 6.5 6.5-2.9 6.5-6.5 6.5z"/><path fill="#82003F" d="M7 1c3.3 0 6 2.7 6 6s-2.7 6-6 6-6-2.7-6-6 2.7-6 6-6m0-1C3.1 0 0 3.1 0 7s3.1 7 7 7 7-3.1 7-7-3.1-7-7-7z"/></svg><svg viewBox="0 0 14 14" enable-background="new 0 0 14 14" width="14" height="14" id="radiobutton-hover" y="476"><path fill="#fff" d="M7 13.5C3.4 13.5.5 10.6.5 7S3.4.5 7 .5s6.5 2.9 6.5 6.5-2.9 6.5-6.5 6.5z"/><path fill="#1A82CB" d="M7 1c3.3 0 6 2.7 6 6s-2.7 6-6 6-6-2.7-6-6 2.7-6 6-6m0-1C3.1 0 0 3.1 0 7s3.1 7 7 7 7-3.1 7-7-3.1-7-7-7z"/></svg><svg width="12" height="15" viewBox="0 0 12 15" id="small-check-white" y="490"><title>Small button check - icon</title><desc>Created with Sketch.</desc><path d="M2.872 6.917l2.74 3.15 4.454-5.115" stroke-width="2" stroke="#fff" fill="none"/></svg><svg width="12" height="15" viewBox="0 0 12 15" id="small-min-white" y="505"><title>Small button min - icon</title><desc>Created with Sketch.</desc><path d="M3 7h6v2H3z" fill="#fff"/></svg><svg width="12" height="15" viewBox="0 0 12 15" id="small-pen-white" y="520"><title>Small button pen - icon</title><desc>Created with Sketch.</desc><g transform="translate(-531 -3821) translate(531 3821)" fill="none"><path d="M8.584 4.795l-2.91 3.918" stroke="#fff" stroke-width="2" stroke-linecap="square"/><path fill="#fff" d="M3.023 12.2l.475-2.52 1.816 1.37z"/></g></svg><svg width="12" height="15" viewBox="0 0 12 15" id="small-x-white" y="535"><title>Small button x - icon</title><desc>Created with Sketch.</desc><g transform="translate(-549 -3821) translate(549 3821)" stroke-width="2" stroke="#fff" fill="none"><path d="M9 5l-6 6"/><path d="M2.94 5l6 6"/></g></svg><svg width="14" height="14" viewBox="0 0 14 14" id="stop-blue" y="550"><title>Stop - icon blue</title><desc>Created with Sketch.</desc><g transform="translate(1 1)" fill="none"><ellipse stroke="#1A82CB" stroke-width="2" cx="6" cy="6" rx="6" ry="6"/><path fill="#1A82CB" d="M10.242 8.828l-7.07-7.07-1.414 1.414 7.07 7.07z"/></g></svg><svg width="14" height="14" viewBox="0 0 14 14" id="stop-white" y="564"><title>Stop-icon</title><desc>Created with Sketch.</desc><g transform="translate(1 1)" fill="none"><ellipse stroke="#fff" stroke-width="2" cx="6" cy="6" rx="6" ry="6"/><path fill="#fff" d="M10.242 8.828l-7.07-7.07-1.414 1.414 7.07 7.07z"/></g></svg><svg width="11" height="11" viewBox="0 0 11 11" id="tertiary-edit-blue" y="578"><title>tertiary button - edit</title><desc>Created with Sketch.</desc><g transform="translate(0 0)" fill="#1A82CB"><path d="M1 7.576V10h2.41L1 7.576z"/><path d="M4.68.364h3.434V8.85H4.68z"/></g></svg><svg width="11" height="11" viewBox="0 0 11 11" id="tertiary-remove-blue" y="589"><title>tertiary button - remove</title><desc>Created with Sketch.</desc><g transform="translate(0 0)" fill="#1A82CB"><path d="M1 8.364L7.365 2l1.414 1.415-6.363 6.362z"/><path d="M8.777 8.364L2.414 2 1 3.416l6.363 6.362z"/></g></svg><svg width="595.28" height="841.89" viewBox="0 0 595.28 841.89" id="test" y="600"><path fill="#CE2729" d="M314.073 585.756L104.317 395.512l86.585-143.902 226.83 48.78-28.05 59.756-167.072-48.78-39.025 81.707 147.56 145.122z"/></svg><svg width="14" height="14" viewBox="0 0 14 14" id="x-blue" y="1442"><title>X - icon blue</title><desc>Created with Sketch.</desc><g transform="translate(2 2)" fill="#1A82CB"><path d="M2.415 1.002l7.07 7.07L8.07 9.486 1 2.416z"/><path d="M1.002 8.07L8.072 1l1.414 1.415-7.07 7.07z"/></g></svg><svg width="14" height="14" viewBox="0 0 14 14" id="x-white" y="1456"><title>X-icon</title><desc>Created with Sketch.</desc><g transform="matrix(.707 .707 -.707 .707 -1.793 3.257)" fill="#fff"><path d="M.828 4h10v2h-10z"/><path d="M4.828 10V0h2v10z"/></g></svg></svg>